
<svg version="1.0" xmlns="http://www.w3.org/2000/svg"
 width="200.000000pt" height="52.000000pt" viewBox="0 0 200.000000 52.000000"
 preserveAspectRatio="xMidYMid meet">

<g transform="translate(0.000000,52.000000) scale(0.100000,-0.100000)"
fill="#000000" stroke="none">
<path d="M261 476 c11 -9 149 -15 149 -6 0 6 -32 10 -77 10 -42 0 -74 -2 -72
-4z"/>
<path d="M450 463 c0 -10 9 -52 20 -93 11 -41 20 -85 20 -98 0 -13 -27 -70
-60 -127 -33 -57 -60 -106 -60 -109 0 -4 30 -6 68 -6 l67 0 35 65 c19 36 38
65 42 65 4 0 13 -28 20 -62 l14 -63 72 -3 c58 -2 72 0 72 12 0 8 -11 61 -24
117 l-25 103 51 86 c29 47 58 95 66 108 l14 22 -70 0 -71 0 -37 -61 c-41 -68
-48 -66 -59 13 l-7 48 -74 0 c-64 0 -74 -2 -74 -17z"/>
<path d="M271 406 c2 -2 39 -7 82 -11 53 -5 77 -3 77 4 0 7 -30 11 -82 11 -45
0 -79 -2 -77 -4z"/>
<path d="M330 330 c80 -11 120 -11 120 0 0 6 -35 9 -87 9 -85 -2 -86 -2 -33
-9z"/>
<path d="M999 297 l20 -33 -21 -34 -20 -35 25 29 25 29 17 -33 c9 -17 19 -29
22 -26 3 3 -4 20 -15 39 -20 34 -20 34 0 66 11 17 15 31 10 31 -6 0 -14 -9
-17 -20 -3 -11 -11 -20 -16 -20 -5 0 -14 9 -21 20 -7 11 -17 20 -21 20 -5 0 0
-15 12 -33z"/>
<path d="M1109 314 c-17 -20 -16 -88 1 -109 24 -29 80 -13 80 23 0 9 -6 6 -18
-8 -16 -19 -22 -21 -40 -11 -17 9 -22 21 -22 49 0 58 44 85 70 45 11 -17 11
-17 6 0 -3 10 -6 21 -6 23 0 12 -59 2 -71 -12z"/>
<path d="M1220 260 l0 -70 40 0 c48 0 54 17 8 22 -25 2 -33 8 -33 23 0 15 8
21 30 24 l30 4 -30 6 c-45 9 -42 44 5 52 l35 6 -42 2 -43 1 0 -70z"/>
<path d="M1342 263 l-2 -73 30 0 c17 0 30 5 30 10 0 6 -11 10 -25 10 -23 0
-24 4 -28 63 l-3 62 -2 -72z"/>
<path d="M1430 260 l0 -70 41 0 c24 0 38 4 34 10 -3 6 -20 10 -36 10 -26 0
-30 3 -27 22 2 16 12 25 33 29 l30 7 -32 1 c-28 1 -33 5 -33 25 0 21 5 25 38
29 l37 4 -42 1 -43 2 0 -70z"/>
<path d="M1541 265 c1 -36 5 -65 10 -65 5 0 9 11 9 25 0 37 35 33 55 -6 20
-37 31 -33 14 5 -10 21 -10 31 1 51 18 34 -1 55 -51 55 l-39 0 1 -65z m77 28
c3 -20 -1 -23 -27 -23 -27 0 -31 4 -31 26 0 22 4 25 28 22 19 -2 28 -9 30 -25z"/>
<path d="M1676 269 c-10 -33 -15 -63 -12 -67 3 -3 6 0 6 6 0 7 15 12 35 12 20
0 35 -5 35 -12 0 -6 3 -8 7 -5 10 11 -29 127 -42 127 -7 0 -20 -27 -29 -61z
m48 -6 c6 -20 4 -23 -19 -23 -23 0 -25 3 -19 28 13 51 21 50 38 -5z"/>
<path d="M1773 323 c12 -3 17 -15 18 -41 l2 -37 6 34 c4 21 14 37 26 42 14 5
7 7 -25 7 -25 0 -37 -2 -27 -5z"/>
<path d="M1870 260 l0 -70 41 0 c24 0 38 4 34 10 -3 6 -20 10 -36 10 -26 0
-30 3 -27 22 2 16 12 25 33 29 l30 7 -32 1 c-28 1 -33 5 -33 25 0 21 5 25 38
29 l37 4 -42 1 -43 2 0 -70z"/>
<path d="M363 257 c64 -7 92 -6 100 2 8 8 -15 11 -89 10 l-99 -2 88 -10z"/>
<path d="M1792 220 c0 -14 2 -19 5 -12 2 6 2 18 0 25 -3 6 -5 1 -5 -13z"/>
<path d="M290 190 c80 -12 130 -11 130 0 0 6 -37 9 -92 9 -87 -2 -89 -2 -38
-9z"/>
<path d="M245 120 c89 -11 135 -11 135 0 0 6 -38 9 -97 9 -93 -2 -95 -2 -38
-9z"/>
<path d="M195 50 c108 -15 138 -15 143 -2 3 9 -22 12 -100 11 -97 -2 -99 -2
-43 -9z"/>
</g>
</svg>
